<?xml version="1.0" encoding="utf-8"?>
<!-- Generator: Adobe Illustrator 21.0.0, SVG Export Plug-In . SVG Version: 6.00 Build 0)  -->
<svg version="1.1" id="Layer_5" xmlns="http://www.w3.org/2000/svg" xmlns:xlink="http://www.w3.org/1999/xlink" x="0px" y="0px"
	 viewBox="0 0 34 34" style="enable-background:new 0 0 34 34;" xml:space="preserve">
<style type="text/css">
	.st0{fill:#f64b3c;}
</style>
<path class="st0" d="M15.9,9.9c-4.5,0-8.2,3.7-8.2,8.2s3.7,8.2,8.2,8.2s8.2-3.7,8.2-8.2S20.4,9.9,15.9,9.9z M15.9,25.2
	c-3.9,0-7.1-3.2-7.1-7.1S12,11,15.9,11s7.1,3.2,7.1,7.1S19.8,25.2,15.9,25.2z"/>
<path class="st0" d="M17.5,18.1c0-0.9-0.7-1.6-1.6-1.6c-0.9,0-1.6,0.7-1.6,1.6c0,0.9,0.7,1.6,1.6,1.6C16.8,19.7,17.5,19,17.5,18.1z
	 M15.9,18.6c-0.3,0-0.5-0.2-0.5-0.5c0-0.3,0.2-0.5,0.5-0.5c0.3,0,0.5,0.2,0.5,0.5C16.5,18.4,16.2,18.6,15.9,18.6z"/>
<path class="st0" d="M15.9,15.4c0.9,0,1.6-0.7,1.6-1.6s-0.7-1.6-1.6-1.6c-0.9,0-1.6,0.7-1.6,1.6S15,15.4,15.9,15.4z M15.9,13.2
	c0.3,0,0.5,0.2,0.5,0.5c0,0.3-0.2,0.5-0.5,0.5c-0.3,0-0.5-0.2-0.5-0.5C15.4,13.4,15.6,13.2,15.9,13.2z"/>
<path class="st0" d="M13.3,17.2c0.3-0.9-0.2-1.8-1.1-2.1c-0.4-0.1-0.9-0.1-1.3,0.1c-0.4,0.2-0.7,0.5-0.8,1c-0.3,0.9,0.2,1.8,1.1,2.1
	c0.2,0.1,0.3,0.1,0.5,0.1C12.4,18.4,13.1,17.9,13.3,17.2L13.3,17.2z M11.2,16.6c0-0.1,0.1-0.3,0.3-0.3c0.1,0,0.2-0.1,0.2-0.1
	c0.1,0,0.1,0,0.2,0c0.3,0.1,0.4,0.4,0.4,0.7s-0.4,0.4-0.7,0.4C11.3,17.2,11.1,16.9,11.2,16.6L11.2,16.6z"/>
<path class="st0" d="M14.3,20.3c-0.7-0.5-1.8-0.4-2.3,0.4c-0.3,0.4-0.4,0.8-0.3,1.2s0.3,0.8,0.7,1.1c0.3,0.2,0.6,0.3,1,0.3
	c0.5,0,1-0.2,1.3-0.7C15.2,21.9,15,20.8,14.3,20.3L14.3,20.3z M13.8,22c-0.1,0.1-0.2,0.2-0.4,0.2c-0.1,0-0.3,0-0.4-0.1
	c-0.2-0.2-0.3-0.5-0.1-0.8c0.1-0.1,0.3-0.2,0.4-0.2c0.1,0,0.2,0,0.3,0.1C13.9,21.4,13.9,21.7,13.8,22L13.8,22z"/>
<path class="st0" d="M17.5,20.3c-0.7,0.5-0.9,1.6-0.4,2.3c0.3,0.4,0.8,0.7,1.3,0.7c0.3,0,0.7-0.1,1-0.3c0.4-0.3,0.6-0.6,0.7-1.1
	c0.1-0.4,0-0.9-0.3-1.2C19.3,19.9,18.2,19.8,17.5,20.3L17.5,20.3z M18.8,22.1c-0.1,0.1-0.3,0.1-0.4,0.1c-0.1,0-0.3-0.1-0.4-0.2
	c-0.2-0.2-0.1-0.6,0.1-0.8c0.1-0.1,0.2-0.1,0.3-0.1c0.2,0,0.3,0.1,0.4,0.2C19.1,21.6,19,21.9,18.8,22.1L18.8,22.1z"/>
<path class="st0" d="M19.6,15.2c-0.9,0.3-1.3,1.2-1.1,2.1c0.2,0.7,0.9,1.1,1.6,1.1c0.2,0,0.3,0,0.5-0.1c0.9-0.3,1.3-1.2,1.1-2.1
	c-0.1-0.4-0.4-0.8-0.8-1C20.4,15.1,20,15,19.6,15.2L19.6,15.2z M20.2,17.3c-0.3,0.1-0.6-0.1-0.7-0.4c-0.1-0.3,0.1-0.6,0.4-0.7
	c0.1,0,0.1,0,0.2,0c0.1,0,0.2,0,0.2,0.1c0.1,0.1,0.2,0.2,0.3,0.3C20.7,16.9,20.5,17.2,20.2,17.3z"/>
<path class="st0" d="M34,17c0-9.4-7.6-17-17-17h-0.5v2.2c-0.2,0-0.4,0-0.5,0C7.1,2.2,0,9.3,0,18.1S7.1,34,15.9,34
	s15.9-7.1,15.9-15.9c0-0.2,0-0.4,0-0.5H34V17z M32.4,13.2h-4.1c-0.3-0.9-0.7-1.8-1.2-2.6c0.8-0.5,1.3-1.4,1.3-2.3
	c0-1.5-1.2-2.7-2.7-2.7c-1,0-1.8,0.5-2.3,1.3c-0.8-0.5-1.7-0.9-2.6-1.2l0-4.1C26.5,3,31,7.5,32.4,13.2L32.4,13.2z M26.6,9.7
	c-0.6-0.8-1.4-1.6-2.2-2.2c0.3-0.5,0.8-0.9,1.4-0.9c0.9,0,1.6,0.7,1.6,1.6C27.4,8.8,27.1,9.4,26.6,9.7z M26.3,17.5
	c0,0.1,0,0.1,0,0.2c0,0.1,0,0.3,0,0.4c0,5.7-4.7,10.4-10.4,10.4S5.5,23.8,5.5,18.1S10.2,7.7,15.9,7.7c0.1,0,0.2,0,0.4,0
	c0.1,0,0.1,0,0.2,0v1.1l0.5,0.1c4.3,0.5,7.8,3.9,8.2,8.2l0.1,0.5H26.3z M16.5,6.6c-0.1,0-0.1,0-0.2,0c-0.1,0-0.2,0-0.3,0
	c-1.3,0-2.6,0.2-3.8,0.6c0.3-1.4,1.1-2.5,2.4-3.2L16,3.3c0.1,0,0.3,0,0.4,0V6.6z M13.3,3.5c-1.3,1-2.2,2.5-2.3,4.2
	c-3.9,1.8-6.6,5.8-6.6,10.4c0,0.1,0,0.1,0,0.2c-1.2-0.7-2.1-1.8-2.3-3.3l-0.2-1.6C3.6,8.3,7.9,4.5,13.3,3.5L13.3,3.5z M1.1,18.1
	c0-0.7,0.1-1.4,0.1-2c0.5,1.6,1.7,2.8,3.3,3.5c0.6,4.5,3.8,8.3,8.1,9.6c-1,1-2.4,1.4-3.8,1.2L7.1,30C3.5,27.3,1.1,23,1.1,18.1
	L1.1,18.1z M9.5,31.4C9.5,31.4,9.5,31.4,9.5,31.4c1.7,0,3.2-0.7,4.3-2c0.7,0.1,1.4,0.2,2.1,0.2c3.9,0,7.3-2,9.4-4.9
	c0.6,1.3,0.6,2.7-0.1,4l-0.8,1.5c-2.4,1.7-5.4,2.8-8.6,2.8C13.6,32.9,11.4,32.4,9.5,31.4L9.5,31.4z M30.7,18.1c0,4-1.6,7.6-4.1,10.2
	c0.5-1.6,0.3-3.3-0.6-4.7c0.9-1.6,1.4-3.5,1.4-5.5c0-0.1,0-0.2,0-0.3c0-0.1,0-0.1,0-0.2h3.3C30.7,17.7,30.7,17.9,30.7,18.1z
	 M26.2,16.5C25.5,12,22,8.5,17.5,7.8V1.1c0.7,0,1.5,0.1,2.2,0.2l0,5.1l0.4,0.1c3.5,1,6.3,3.8,7.3,7.3l0.1,0.4h5.1
	c0.1,0.7,0.2,1.4,0.2,2.2H26.2z"/>
<circle class="st0" cx="29.6" cy="11.5" r="0.5"/>
<circle class="st0" cx="22.5" cy="4.4" r="0.5"/>
<path class="st0" d="M5.5,11l-0.9-0.6c-0.2,0.3-0.4,0.6-0.6,1l1,0.5C5.1,11.6,5.3,11.3,5.5,11z"/>
<path class="st0" d="M8.3,8L7.7,7.1C7.4,7.4,7.1,7.6,6.8,7.8l0.7,0.8C7.8,8.4,8.1,8.2,8.3,8z"/>
<path class="st0" d="M4.4,12.9l-1-0.5c-0.2,0.3-0.3,0.7-0.4,1.1l1,0.4C4.1,13.5,4.3,13.2,4.4,12.9z"/>
<path class="st0" d="M6.8,9.4L6,8.6C5.7,8.9,5.5,9.2,5.2,9.5l0.9,0.7C6.3,9.9,6.5,9.6,6.8,9.4z"/>
<path class="st0" d="M10.1,6.9l-0.5-1c-0.3,0.2-0.7,0.4-1,0.6l0.6,0.9C9.5,7.2,9.8,7,10.1,6.9z"/>
<path class="st0" d="M4,22.2l-1,0.4c0.1,0.4,0.3,0.7,0.4,1.1l1-0.4C4.2,22.8,4.1,22.5,4,22.2z"/>
<path class="st0" d="M5.1,26.5c0.2,0.3,0.5,0.6,0.7,0.9l0.8-0.7c-0.2-0.3-0.5-0.5-0.7-0.8L5.1,26.5z"/>
<path class="st0" d="M4.8,24.1l-1,0.5c0.2,0.3,0.4,0.7,0.6,1L5.3,25C5.2,24.7,5,24.4,4.8,24.1L4.8,24.1z"/>
<path class="st0" d="M3.5,20.1l-1.1,0.2c0.1,0.4,0.1,0.7,0.2,1.1l1.1-0.3C3.6,20.8,3.5,20.5,3.5,20.1L3.5,20.1z"/>
<path class="st0" d="M8.2,28.1c-0.3-0.2-0.5-0.4-0.8-0.7l-0.7,0.8c0.3,0.3,0.6,0.5,0.9,0.7L8.2,28.1z"/>
<path class="st0" d="M18.2,30.5l0.2,1.1c0.4-0.1,0.7-0.2,1.1-0.3l-0.3-1.1C18.9,30.4,18.5,30.4,18.2,30.5z"/>
<path class="st0" d="M16.1,30.7l0,1.1c0.4,0,0.8,0,1.1-0.1l-0.1-1.1C16.8,30.7,16.4,30.7,16.1,30.7z"/>
<path class="st0" d="M20.2,30l0.4,1c0.4-0.1,0.7-0.3,1.1-0.4l-0.5-1C20.9,29.7,20.5,29.8,20.2,30L20.2,30z"/>
<path class="st0" d="M22.1,29.1l0.5,1c0.3-0.2,0.7-0.4,1-0.6L23,28.5C22.7,28.7,22.4,28.9,22.1,29.1L22.1,29.1z"/>
<path class="st0" d="M13.8,31.7c0.4,0.1,0.8,0.1,1.1,0.1l0.1-1.1c-0.3,0-0.7-0.1-1-0.1L13.8,31.7z"/>
<path class="st0" d="M29.3,21l-1.1-0.2c-0.1,0.3-0.2,0.7-0.3,1l1,0.3C29.1,21.8,29.2,21.4,29.3,21z"/>
<path class="st0" d="M29.6,18.8l-1.1-0.1c0,0.3,0,0.7-0.1,1l1.1,0.1C29.5,19.5,29.6,19.2,29.6,18.8L29.6,18.8z"/>
<path class="st0" d="M27.2,23.8l1,0.5c0.2-0.3,0.3-0.7,0.5-1l-1-0.4C27.5,23.1,27.3,23.5,27.2,23.8z"/>
</svg>
