<?xml version="1.0" encoding="utf-8"?>
<!-- Generator: Adobe Illustrator 21.0.0, SVG Export Plug-In . SVG Version: 6.00 Build 0)  -->
<svg version="1.1" id="Layer_1" xmlns="http://www.w3.org/2000/svg" xmlns:xlink="http://www.w3.org/1999/xlink" x="0px" y="0px"
	 viewBox="0 0 34 34" style="enable-background:new 0 0 34 34;" xml:space="preserve">
<style type="text/css">
	.st0{fill:#FFFFFF;}
</style>
<g id="surface1">
	<path class="st0" d="M5.4,19.2c0.4,0.1,0.8,0.1,1.2,0.1c4.1,0,8.1-2.4,9.7-3.4l-2,18.1h6.2l-2-18c1.7,1.2,5.8,3.8,9.9,3.8
		c0.3,0,0.5,0,0.8,0l0.3,0l0.2-0.5L29.8,19c-3.1-4.1-9.4-5.6-10.6-5.8c-0.1-0.2-0.2-0.3-0.3-0.5c0.3-1.3,1.5-7.8-0.9-12.4L17.8,0
		h-0.6l-0.1,0.2c-2.4,4.6-1.2,11.2-0.9,12.4c-0.1,0.1-0.2,0.3-0.3,0.4c-1.2,0.2-7.6,1.4-10.9,5.4l-0.2,0.2l0.2,0.6L5.4,19.2z
		 M19.3,14.1c1.6,0.4,6.4,1.7,9.2,4.8c-4.1-0.1-8.3-2.9-9.6-3.8C19.1,14.8,19.2,14.5,19.3,14.1L19.3,14.1z M17.5,14.8
		c-0.5,0-0.9-0.4-0.9-0.9c0-0.5,0.4-0.9,0.9-0.9c0.5,0,0.9,0.4,0.9,0.9c0,0,0,0,0,0C18.4,14.4,18,14.8,17.5,14.8L17.5,14.8z
		 M19.6,33.1h-4.2l0.1-1h4L19.6,33.1z M15.6,31.1l1.7-15.4c0.1,0,0.1,0,0.2,0c0.1,0,0.1,0,0.2,0l1.7,15.4H15.6z M17.5,1.5
		c1.6,3.9,0.8,9,0.5,10.7c-0.3-0.1-0.7-0.1-1,0C16.7,10.5,15.9,5.4,17.5,1.5L17.5,1.5z M15.8,14c0,0.4,0.2,0.7,0.4,1
		c-1.3,0.9-5.5,3.4-9.5,3.4H6.4C9.3,15.4,14.2,14.3,15.8,14z"/>
</g>
</svg>
