<?xml version="1.0" encoding="utf-8"?>
<!-- Generator: Adobe Illustrator 21.0.0, SVG Export Plug-In . SVG Version: 6.00 Build 0)  -->
<svg version="1.1" id="Layer_1" xmlns="http://www.w3.org/2000/svg" xmlns:xlink="http://www.w3.org/1999/xlink" x="0px" y="0px"
	 viewBox="0 0 34 34" style="enable-background:new 0 0 34 34;" xml:space="preserve">
<style type="text/css">
	.st0{fill:#f64b3c;}
</style>
<path class="st0" d="M8.2,14.3v-1.1c-2.7,0-4.9-2.2-4.9-4.9H2.2C2.2,11.6,4.9,14.3,8.2,14.3z"/>
<path class="st0" d="M8.2,12.1c2.1,0,3.8-1.7,3.8-3.8s-1.7-3.8-3.8-3.8S4.4,6.1,4.4,8.2S6.1,12.1,8.2,12.1z M8.2,5.5
	c1.5,0,2.7,1.2,2.7,2.7S9.7,11,8.2,11S5.5,9.7,5.5,8.2S6.7,5.5,8.2,5.5z"/>
<path class="st0" d="M8.2,9.9c0.9,0,1.6-0.7,1.6-1.6S9.1,6.6,8.2,6.6S6.6,7.3,6.6,8.2S7.3,9.9,8.2,9.9z M8.2,7.7
	c0.3,0,0.5,0.2,0.5,0.5c0,0.3-0.2,0.5-0.5,0.5c-0.3,0-0.5-0.2-0.5-0.5C7.7,7.9,7.9,7.7,8.2,7.7z"/>
<path class="st0" d="M34,26.2v-4.1l-1.5-0.5c-0.2-0.5-0.4-1.1-0.7-1.6l0.7-1.4L32,18.1c-0.2-0.3-0.6-0.7-1-1.1
	c-0.4-0.4-0.8-0.8-1.1-1.1l-3.6-3.2l0.3-0.9l1.3,0.6l2.1-2.1l-0.6-1.3l1.3-0.4v-3l-1.3-0.4L30,3.9l-2.1-2.1l-1.3,0.6l-0.4-1.3h-3
	l-0.4,1.3l-1.3-0.6l-2.1,2.1L20,5.2l-1.3,0.4v0.4l-4.5-3.9C12.6,0.7,10.6,0,8.5,0v0C8.4,0,8.3,0,8.2,0C3.7,0,0,3.7,0,8.2
	c0,0.1,0,0.2,0,0.3h0c0,2.1,0.7,4.1,2.1,5.6l3.9,4.5H5.6L5.2,20l-1.3-0.6l-2.1,2.1l0.6,1.3l-1.3,0.4v3l1.3,0.4l-0.6,1.3L3.9,30
	l1.3-0.6l0.4,1.3h3l0.4-1.3l1.3,0.6l2.1-2.1l-0.6-1.3l0.9-0.3l3.2,3.6c0.2,0.3,0.6,0.7,1,1c0.3,0.3,0.8,0.8,1.1,1l0.5,0.5l1.4-0.7
	c0.5,0.3,1,0.5,1.6,0.7l0.5,1.5h4.1l0.5-1.5c0.5-0.2,1.1-0.4,1.6-0.7l1.4,0.7l2.9-2.9l-0.7-1.4c0.3-0.5,0.5-1,0.7-1.6L34,26.2z
	 M16.4,20c-0.3,0.5-0.5,1-0.7,1.6l-1.5,0.5v4.1l1.5,0.5c0.2,0.5,0.4,1.1,0.7,1.6l-0.2,0.3L5,15.8c1,0.4,2.1,0.6,3.2,0.6
	c4.5,0,8.2-3.7,8.2-8.2c0-1.1-0.2-2.2-0.6-3.2l12.8,11.2l-0.4,0.2c-0.5-0.3-1-0.5-1.6-0.7l-0.5-1.5h-4.1l-0.5,1.5
	c-0.5,0.2-1.1,0.4-1.6,0.7l-1.4-0.7l-2.9,2.9L16.4,20z M19.7,6.4L21,6l0.1-0.2c0-0.1,0.1-0.1,0.1-0.2l0.1-0.2l-0.6-1.2l1-1l1.2,0.6
	l0.2-0.1c0.1,0,0.1-0.1,0.2-0.1l0.2-0.1L24,2.2h1.4l0.4,1.3L26,3.5c0.1,0,0.1,0.1,0.2,0.1l0.2,0.1l1.2-0.6l1,1l-0.6,1.2l0.1,0.2
	c0,0.1,0.1,0.1,0.1,0.2L28.4,6l1.3,0.4v1.4l-1.3,0.4l-0.1,0.2c0,0.1-0.1,0.1-0.1,0.2l-0.1,0.2l0.6,1.2l-1,1l-1.2-0.6l-0.2,0.1
	c-0.1,0-0.1,0.1-0.2,0.1l-0.2,0.1L25.4,12l-5.7-5V6.4z M8.2,1.1c3.9,0,7.1,3.2,7.1,7.1s-3.2,7.1-7.1,7.1s-7.1-3.2-7.1-7.1
	S4.3,1.1,8.2,1.1z M10.8,25.8L10.7,26c0,0.1-0.1,0.1-0.1,0.2l-0.1,0.2l0.6,1.2l-1,1l-1.2-0.6l-0.2,0.1c-0.1,0-0.1,0.1-0.2,0.1
	l-0.2,0.1l-0.4,1.3H6.4L6,28.4l-0.2-0.1c-0.1,0-0.1-0.1-0.2-0.1l-0.2-0.1l-1.2,0.6l-1-1l0.6-1.2l-0.1-0.2c0-0.1-0.1-0.1-0.1-0.2
	l-0.1-0.2l-1.3-0.4V24l1.3-0.4l0.1-0.2c0-0.1,0.1-0.1,0.1-0.2l0.1-0.2l-0.6-1.2l1-1l1.2,0.6l0.2-0.1c0.1,0,0.1-0.1,0.2-0.1L6,21
	l0.4-1.3H7l5,5.7L10.8,25.8z M31.6,25.8l-0.1,0.3c-0.2,0.7-0.4,1.3-0.8,1.8l-0.1,0.3l0.6,1.2l-1.8,1.8l-1.2-0.6L28,30.8
	c-0.6,0.3-1.2,0.6-1.8,0.8l-0.3,0.1l-0.5,1.3h-2.5l-0.5-1.3l-0.3-0.1c-0.7-0.2-1.3-0.4-1.8-0.8L20,30.6l-1.2,0.6L17,29.4l0.6-1.2
	L17.5,28c-0.3-0.6-0.6-1.2-0.8-1.8l-0.1-0.3l-1.3-0.5v-2.5l1.3-0.5l0.1-0.3c0.2-0.7,0.4-1.3,0.8-1.8l0.1-0.3L17,18.8l1.8-1.8
	l1.2,0.6l0.3-0.1c0.6-0.3,1.2-0.6,1.8-0.8l0.3-0.1l0.5-1.3h2.5l0.5,1.3l0.3,0.1c0.7,0.2,1.3,0.4,1.8,0.8l0.3,0.1l1.2-0.6l1.8,1.8
	L30.6,20l0.1,0.3c0.3,0.6,0.6,1.2,0.8,1.8l0.1,0.3l1.3,0.5v2.5L31.6,25.8z"/>
<path class="st0" d="M24.1,18.6c-3,0-5.5,2.5-5.5,5.5s2.5,5.5,5.5,5.5s5.5-2.5,5.5-5.5S27.2,18.6,24.1,18.6z M24.1,28.5
	c-2.4,0-4.4-2-4.4-4.4s2-4.4,4.4-4.4s4.4,2,4.4,4.4S26.5,28.5,24.1,28.5z"/>
<path class="st0" d="M24.1,20.8c-1.8,0-3.3,1.5-3.3,3.3s1.5,3.3,3.3,3.3s3.3-1.5,3.3-3.3S25.9,20.8,24.1,20.8z M24.1,26.3
	c-1.2,0-2.2-1-2.2-2.2s1-2.2,2.2-2.2s2.2,1,2.2,2.2S25.3,26.3,24.1,26.3z"/>
<path class="st0" d="M27.4,7.1c0-1.5-1.2-2.7-2.7-2.7c-1.5,0-2.7,1.2-2.7,2.7s1.2,2.7,2.7,2.7C26.2,9.9,27.4,8.6,27.4,7.1z M23,7.1
	c0-0.9,0.7-1.6,1.6-1.6s1.6,0.7,1.6,1.6s-0.7,1.6-1.6,1.6S23,8,23,7.1z"/>
<path class="st0" d="M4.4,24.7c0,1.5,1.2,2.7,2.7,2.7s2.7-1.2,2.7-2.7c0-1.5-1.2-2.7-2.7-2.7S4.4,23.2,4.4,24.7z M8.8,24.7
	c0,0.9-0.7,1.6-1.6,1.6s-1.6-0.7-1.6-1.6S6.2,23,7.1,23S8.8,23.8,8.8,24.7z"/>
</svg>
