<?xml version="1.0" encoding="utf-8"?>
<!-- Generator: Adobe Illustrator 21.0.0, SVG Export Plug-In . SVG Version: 6.00 Build 0)  -->
<svg version="1.1" id="Layer_1" xmlns="http://www.w3.org/2000/svg" xmlns:xlink="http://www.w3.org/1999/xlink" x="0px" y="0px"
	 viewBox="0 0 34 34" style="enable-background:new 0 0 34 34;" xml:space="preserve">
<style type="text/css">
	.st0{fill:#f64b3c;}
</style>
<g id="Page-1">
	<g id="_x30_21---Spanner" transform="translate(-1)">
		<path id="Shape" class="st0" d="M6.1,31.2c0.6,0,1.2-0.2,1.6-0.7c0.2-0.2,0.2-0.6,0-0.8c-0.2-0.2-0.6-0.2-0.8,0
			c-0.4,0.4-1.2,0.4-1.6,0s-0.4-1.2,0-1.6s1.2-0.4,1.6,0c0.2,0.2,0.6,0.2,0.8,0c0.2-0.2,0.2-0.6,0-0.8c-0.7-0.7-1.9-0.9-2.7-0.4
			c-0.9,0.5-1.3,1.6-1.1,2.6S5,31.2,6.1,31.2z"/>
		<path id="Shape_1_" class="st0" d="M9.7,25.9c0.2,0,0.3-0.1,0.4-0.2l0.4-0.4c0.2-0.2,0.2-0.6,0-0.8s-0.6-0.2-0.8,0l-0.4,0.4
			c-0.2,0.2-0.2,0.4-0.1,0.6C9.3,25.7,9.5,25.9,9.7,25.9z"/>
		<path id="Shape_2_" class="st0" d="M11.7,23.9c0.2,0,0.3-0.1,0.4-0.2l7.7-7.7c0.2-0.2,0.2-0.6,0-0.8s-0.6-0.2-0.8,0l-7.7,7.7
			c-0.2,0.2-0.2,0.4-0.1,0.6C11.3,23.7,11.5,23.9,11.7,23.9L11.7,23.9z"/>
		<path id="Shape_3_" class="st0" d="M1,29c0,1.3,0.5,2.6,1.4,3.5C3.3,33.5,4.6,34,5.9,34H6c1.3,0,2.6-0.6,3.5-1.6l15-16.8
			c2.6,0.9,5.6,0.3,7.7-1.5s3.1-4.6,2.7-7.3c-0.1-0.4-0.4-0.8-0.8-0.9c-0.4-0.1-0.8,0-1.1,0.3l-4.4,4.4c-0.1,0.1-0.3,0.2-0.5,0.2
			l-2.9-0.3c-0.3,0-0.5-0.2-0.5-0.5l-0.3-2.9c0-0.2,0-0.3,0.2-0.5L28.9,2c0.3-0.3,0.4-0.7,0.3-1.1c-0.1-0.4-0.5-0.7-0.9-0.8
			c-2.7-0.4-5.5,0.6-7.3,2.7c-1.8,2.1-2.4,5-1.5,7.7l-16.8,15C1.6,26.4,1,27.6,1,29L1,29z M3.4,26.3l17.1-15.3
			c0.2-0.2,0.2-0.4,0.2-0.6c-0.9-2.3-0.5-4.9,1.1-6.8c1.5-1.9,4-2.8,6.4-2.4l-4.4,4.4C23.4,6,23.2,6.5,23.2,7l0.3,2.9
			c0.1,0.8,0.7,1.4,1.5,1.5l2.9,0.3c0.5,0.1,1-0.1,1.4-0.5l4.4-4.4c0.4,2.4-0.5,4.9-2.4,6.4c-1.9,1.5-4.5,2-6.8,1.1
			c-0.2-0.1-0.5,0-0.6,0.2L8.7,31.6C8,32.4,7,32.8,6,32.9s-2-0.4-2.8-1.1C2.5,31,2.1,30,2.2,29C2.2,28,2.6,27,3.4,26.3L3.4,26.3z"/>
	</g>
</g>
</svg>
