<?xml version="1.0" encoding="utf-8"?>
<!-- Generator: Adobe Illustrator 21.0.0, SVG Export Plug-In . SVG Version: 6.00 Build 0)  -->
<svg version="1.1" id="Capa_1" xmlns="http://www.w3.org/2000/svg" xmlns:xlink="http://www.w3.org/1999/xlink" x="0px" y="0px"
	 viewBox="0 0 34 34" style="enable-background:new 0 0 34 34;" xml:space="preserve">
<style type="text/css">
	.st0{fill:#f64b3c;}
</style>
<g>
	<g>
		<path class="st0" d="M29.2,30c-0.4,0-0.7,0.3-0.7,0.7c0,0.4,0.3,0.7,0.7,0.7c0.4,0,0.7-0.3,0.7-0.7C29.8,30.3,29.5,30,29.2,30z"/>
	</g>
</g>
<g>
	<g>
		<path class="st0" d="M25,30c-0.4,0-0.7,0.3-0.7,0.7c0,0.4,0.3,0.7,0.7,0.7s0.7-0.3,0.7-0.7C25.6,30.3,25.3,30,25,30z"/>
	</g>
</g>
<g>
	<g>
		<path class="st0" d="M21,30c-0.4,0-0.7,0.3-0.7,0.7c0,0.4,0.3,0.7,0.7,0.7c0.4,0,0.7-0.3,0.7-0.7C21.6,30.3,21.4,30,21,30z"/>
	</g>
</g>
<g>
	<g>
		<path class="st0" d="M16.6,30c-0.4,0-0.7,0.3-0.7,0.7c0,0.4,0.3,0.7,0.7,0.7s0.7-0.3,0.7-0.7C17.3,30.3,17,30,16.6,30z"/>
	</g>
</g>
<g>
	<g>
		<path class="st0" d="M12.6,30c-0.4,0-0.7,0.3-0.7,0.7c0,0.4,0.3,0.7,0.7,0.7s0.7-0.3,0.7-0.7C13.3,30.3,13,30,12.6,30z"/>
	</g>
</g>
<g>
	<g>
		<path class="st0" d="M8.6,30C8.3,30,8,30.3,8,30.7c0,0.4,0.3,0.7,0.7,0.7s0.7-0.3,0.7-0.7C9.3,30.3,9,30,8.6,30z"/>
	</g>
</g>
<g>
	<g>
		<path class="st0" d="M4.7,30C4.3,30,4,30.3,4,30.7c0,0.4,0.3,0.7,0.7,0.7c0.4,0,0.7-0.3,0.7-0.7C5.3,30.3,5,30,4.7,30z"/>
	</g>
</g>
<g>
	<g>
		<path class="st0" d="M30.7,27.3h-0.9v-6.8c0-0.4-0.3-0.7-0.7-0.7h-5.5c-0.4,0-0.7,0.3-0.7,0.7v6.8h-5.7v-8.8
			c0-1.2-0.4-2.3-1.1-3.2c-0.6-0.9-1.6-1.5-2.6-1.8L9.3,9.4l13.6-1.7c0.2,0.3,0.5,0.5,0.8,0.7v2.2H23c-0.3,0-0.5,0.1-0.6,0.4
			l-1.3,2.7c-0.1,0.3-0.1,0.6,0.1,0.8l2.7,2.7c0.3,0.3,0.7,0.3,0.9,0c0.3-0.3,0.3-0.7,0-0.9l-2.3-2.3l0.9-1.9h5.8l0.9,1.9l-2.3,2.3
			c-0.3,0.3-0.3,0.7,0,0.9c0.1,0.1,0.3,0.2,0.5,0.2s0.3-0.1,0.5-0.2l2.7-2.7c0.2-0.2,0.3-0.5,0.1-0.8L30.2,11
			c-0.1-0.2-0.3-0.4-0.6-0.4H29V8.5c1.2-0.9,2-2.3,2-3.8c0-2.6-2.1-4.6-4.6-4.6c-1.7,0-3.3,0.9-4.1,2.4L6,2.8c-0.1,0-0.1,0-0.2,0
			C5.5,2.7,5.1,2.7,4.7,2.7C2.1,2.7,0,4.7,0,7.3c0,2.5,1.9,4.5,4.4,4.6l3,3.9c-0.5,0.8-0.8,1.8-0.8,2.8v8.8H3.3
			c-0.9,0-1.7,0.3-2.4,1c-0.6,0.6-1,1.5-1,2.4C0,32.5,1.5,34,3.3,34h27.4c0.9,0,1.7-0.3,2.4-1c0.6-0.6,1-1.5,1-2.4
			C34,28.8,32.5,27.3,30.7,27.3z M27.6,10.6H25V9.1c0.4,0.1,0.9,0.2,1.3,0.2c0.5,0,0.9-0.1,1.3-0.2L27.6,10.6L27.6,10.6z M23.2,3.4
			C23.2,3.4,23.2,3.4,23.2,3.4c0.5-1.2,1.7-2,3.1-2c1.8,0,3.3,1.5,3.3,3.3c0,1.2-0.6,2.3-1.7,2.9C27.5,7.8,26.9,8,26.3,8
			c-0.6,0-1.2-0.2-1.7-0.4c-0.4-0.2-0.7-0.5-1-0.9c-0.4-0.6-0.7-1.3-0.7-2C23,4.2,23.1,3.8,23.2,3.4z M24.3,21.2h4.2v6.1h-4.2V21.2z
			 M13.1,14.8C13.1,14.8,13.1,14.8,13.1,14.8c1.7,0.5,2.8,2.1,2.8,3.8c0,2.2-1.8,4-4,4s-4-1.8-4-4c0-0.9,0.3-1.7,0.8-2.4
			c0.8-1,1.9-1.6,3.2-1.6C12.3,14.6,12.7,14.7,13.1,14.8z M15.9,22.1v5.3H8v-5.3c1,1.1,2.4,1.8,4,1.8S15,23.2,15.9,22.1z M21.7,3.8
			c-0.1,0.3-0.1,0.6-0.1,0.9c0,0.7,0.1,1.3,0.4,1.9L9.2,8.1c0-0.3,0.1-0.5,0.1-0.8c0-1.2-0.5-2.4-1.3-3.2L21.7,3.8z M4.5,10.6
			c-1.8-0.1-3.2-1.5-3.2-3.3C1.3,5.5,2.8,4,4.7,4C5,4,5.4,4,5.7,4.2C7.1,4.6,8,5.9,8,7.3c0,0.4-0.1,0.9-0.3,1.3
			c0,0.1-0.1,0.2-0.2,0.3C7,9.9,6,10.5,4.9,10.6C4.8,10.6,4.6,10.6,4.5,10.6z M5.9,11.8c0.9-0.3,1.7-0.8,2.3-1.5l3.2,3
			c-1.2,0.1-2.3,0.6-3.2,1.5L5.9,11.8z M32.1,32.1c-0.4,0.4-0.9,0.6-1.4,0.6H3.3c-1.1,0-2-0.9-2-2c0-0.5,0.2-1,0.6-1.4
			c0.4-0.4,0.9-0.6,1.4-0.6h4c0,0,0.1,0,0.1,0h9.1c0,0,0.1,0,0.1,0h7c0,0,0.1,0,0.1,0h5.3c0,0,0.1,0,0.1,0h1.5c1.1,0,2,0.9,2,2
			C32.7,31.2,32.5,31.7,32.1,32.1z"/>
	</g>
</g>
<g>
	<g>
		<path class="st0" d="M26.3,2.7c-1.1,0-2,0.9-2,2s0.9,2,2,2c1.1,0,2-0.9,2-2C28.3,3.5,27.4,2.7,26.3,2.7z M26.3,5.3
			c-0.4,0-0.7-0.3-0.7-0.7S25.9,4,26.3,4C26.7,4,27,4.3,27,4.6S26.7,5.3,26.3,5.3z"/>
	</g>
</g>
<g>
	<g>
		<path class="st0" d="M4.7,5.3c-1.1,0-2,0.9-2,2s0.9,2,2,2s2-0.9,2-2C6.6,6.2,5.7,5.3,4.7,5.3z M4.7,8C4.3,8,4,7.7,4,7.3
			s0.3-0.7,0.7-0.7c0.4,0,0.7,0.3,0.7,0.7S5,8,4.7,8z"/>
	</g>
</g>
<g>
	<g>
		<path class="st0" d="M12,15.9c-1.5,0-2.7,1.2-2.7,2.7c0,1.5,1.2,2.7,2.7,2.7s2.7-1.2,2.7-2.7C14.6,17.1,13.4,15.9,12,15.9z
			 M12,19.9c-0.7,0-1.3-0.6-1.3-1.3c0-0.7,0.6-1.3,1.3-1.3c0.7,0,1.3,0.6,1.3,1.3C13.3,19.3,12.7,19.9,12,19.9z"/>
	</g>
</g>
</svg>
