<?xml version="1.0" encoding="utf-8"?>
<!-- Generator: Adobe Illustrator 21.0.0, SVG Export Plug-In . SVG Version: 6.00 Build 0)  -->
<svg version="1.1" id="Layer_1" xmlns="http://www.w3.org/2000/svg" xmlns:xlink="http://www.w3.org/1999/xlink" x="0px" y="0px"
	 viewBox="0 0 17 17" style="enable-background:new 0 0 17 17;" xml:space="preserve">
<style type="text/css">
	.st0{fill:#fff;}
</style>
<g>
	<g>
		<path class="st0" d="M15.6,11.2c-1,0-2.1-0.2-3-0.5c-0.5-0.2-1,0-1.3,0.3l-1.9,1.4c-2.2-1.2-3.6-2.5-4.7-4.7L6,5.8
			c0.4-0.4,0.5-0.9,0.3-1.4c-0.3-1-0.5-2-0.5-3C5.9,0.6,5.2,0,4.5,0H1.4C0.6,0,0,0.6,0,1.4C0,10,7,17,15.6,17c0.8,0,1.4-0.6,1.4-1.4
			v-3.1C17,11.8,16.4,11.2,15.6,11.2z M16.1,15.6c0,0.2-0.2,0.4-0.4,0.4C7.5,16.1,0.9,9.5,0.9,1.4c0-0.2,0.2-0.4,0.4-0.4h3.1
			c0.2,0,0.4,0.2,0.4,0.4c0,1.1,0.2,2.3,0.5,3.3c0,0.2,0,0.3-0.1,0.5L3.7,7.3c-0.1,0.1-0.1,0.3,0,0.5c1.3,2.6,2.9,4.2,5.6,5.6
			c0.2,0.1,0.4,0.1,0.5,0l2.2-1.7c0.1-0.1,0.3-0.2,0.4-0.1c1.1,0.4,2.2,0.5,3.3,0.5c0.2,0,0.4,0.2,0.4,0.4V15.6z"/>
	</g>
</g>
</svg>
