<?xml version="1.0" encoding="utf-8"?>
<!-- Generator: Adobe Illustrator 21.0.0, SVG Export Plug-In . SVG Version: 6.00 Build 0)  -->
<svg version="1.1" id="Capa_1" xmlns="http://www.w3.org/2000/svg" xmlns:xlink="http://www.w3.org/1999/xlink" x="0px" y="0px"
	 viewBox="0 0 34 40" style="enable-background:new 0 0 34 40;" xml:space="preserve">
<style type="text/css">
	.st0{fill:#FFFFFF;}
</style>
<g>
	<g>
		<path class="st0" d="M31.4,15.4L8.2,0.8C6.5-0.2,4.5-0.3,2.8,0.7C1,1.7,0,3.5,0,5.5v29c0,3,2.4,5.5,5.4,5.5c0,0,0,0,0,0
			c0.9,0,1.9-0.3,2.8-0.9c0.7-0.4,1-1.4,0.5-2.1c-0.4-0.7-1.4-1-2.1-0.5c-0.4,0.3-0.8,0.4-1.2,0.4c-1.1,0-2.3-1-2.3-2.4v-29
			c0-0.9,0.4-1.6,1.2-2C5,3,5.9,3,6.6,3.5L29.8,18c0.7,0.4,1.1,1.2,1.1,2c0,0.8-0.4,1.6-1.1,2L13,32.5c-0.7,0.4-1,1.4-0.5,2.1
			c0.4,0.7,1.4,1,2.1,0.5l16.8-10.5C33,23.7,34,22,34,20C34,18.1,33,16.4,31.4,15.4z"/>
	</g>
</g>
</svg>
